<svg width="41" height="41" viewBox="0 0 41 41" fill="none" xmlns="http://www.w3.org/2000/svg">
<g id="apps 1" clip-path="url(#clip0_2_1636)">
<g id="Group">
<g id="Group_2">
<g id="Group_3">
<path id="Vector" d="M20.5 0C9.19561 0 0 9.19649 0 20.5C0 31.8035 9.19561 41 20.5 41C31.8044 41 41 31.8035 41 20.5C41 9.19649 31.8044 0 20.5 0ZM20.5 39.2917C10.1382 39.2917 1.70831 30.8618 1.70831 20.5C1.70831 10.1382 10.1382 1.70831 20.5 1.70831C30.8618 1.70831 39.2917 10.1382 39.2917 20.5C39.2917 30.8618 30.8618 39.2917 20.5 39.2917Z" fill="#FF4E4E"/>
<path id="Vector_2" d="M16.2292 8.54163H11.1042C9.6911 8.54163 8.54166 9.69107 8.54166 11.1041V16.2291C8.54166 17.6422 9.6911 18.7916 11.1042 18.7916H16.2292C17.6422 18.7916 18.7916 17.6422 18.7916 16.2291V11.1041C18.7916 9.69107 17.6422 8.54163 16.2292 8.54163ZM17.0833 16.2291C17.0833 16.7004 16.6995 17.0833 16.2291 17.0833H11.1041C10.6336 17.0833 10.2499 16.7005 10.2499 16.2291V11.1041C10.2499 10.6329 10.6336 10.2499 11.1041 10.2499H16.2291C16.6995 10.2499 17.0833 10.6328 17.0833 11.1041V16.2291Z" fill="#FF4E4E"/>
<path id="Vector_3" d="M29.8958 8.54163H24.7708C23.3578 8.54163 22.2083 9.69107 22.2083 11.1041V16.2291C22.2083 17.6422 23.3578 18.7916 24.7708 18.7916H29.8958C31.3089 18.7916 32.4583 17.6422 32.4583 16.2291V11.1041C32.4583 9.69107 31.3089 8.54163 29.8958 8.54163ZM30.75 16.2291C30.75 16.7004 30.3663 17.0833 29.8958 17.0833H24.7708C24.3004 17.0833 23.9166 16.7005 23.9166 16.2291V11.1041C23.9166 10.6329 24.3004 10.2499 24.7708 10.2499H29.8958C30.3663 10.2499 30.75 10.6328 30.75 11.1041V16.2291Z" fill="#FF4E4E"/>
<path id="Vector_4" d="M16.2292 22.2083H11.1042C9.6911 22.2083 8.54166 23.3577 8.54166 24.7708V29.8958C8.54166 31.3088 9.6911 32.4583 11.1042 32.4583H16.2292C17.6422 32.4583 18.7916 31.3088 18.7916 29.8958V24.7708C18.7916 23.3578 17.6422 22.2083 16.2292 22.2083ZM17.0833 29.8958C17.0833 30.367 16.6995 30.7499 16.2291 30.7499H11.1041C10.6336 30.7499 10.2499 30.3671 10.2499 29.8958V24.7708C10.2499 24.2995 10.6336 23.9166 11.1041 23.9166H16.2291C16.6995 23.9166 17.0833 24.2994 17.0833 24.7708V29.8958Z" fill="#FF4E4E"/>
<path id="Vector_5" d="M29.8958 22.2083H24.7708C23.3578 22.2083 22.2083 23.3577 22.2083 24.7708V29.8958C22.2083 31.3088 23.3578 32.4583 24.7708 32.4583H29.8958C31.3089 32.4583 32.4583 31.3088 32.4583 29.8958V24.7708C32.4583 23.3578 31.3089 22.2083 29.8958 22.2083ZM30.75 29.8958C30.75 30.367 30.3663 30.7499 29.8958 30.7499H24.7708C24.3004 30.7499 23.9166 30.3671 23.9166 29.8958V24.7708C23.9166 24.2995 24.3004 23.9166 24.7708 23.9166H29.8958C30.3663 23.9166 30.75 24.2994 30.75 24.7708V29.8958Z" fill="#FF4E4E"/>
</g>
</g>
</g>
</g>
<defs>
<clipPath id="clip0_2_1636">
<rect width="41" height="41" fill="white"/>
</clipPath>
</defs>
</svg>
