<svg width="120" height="25" viewBox="0 0 120 25" fill="none" xmlns="http://www.w3.org/2000/svg">
<path d="M16.443 3.642V7.615H11.049V24H6.09V7.615H0.696V3.642H16.443ZM23.8908 10.515C24.4708 9.62567 25.1958 8.92967 26.0658 8.427C26.9358 7.905 27.9025 7.644 28.9658 7.644V12.893H27.6028C26.3655 12.893 25.4375 13.1637 24.8188 13.705C24.2001 14.227 23.8908 15.155 23.8908 16.489V24H18.9318V7.818H23.8908V10.515ZM30.3501 15.88C30.3501 14.2173 30.6594 12.7577 31.2781 11.501C31.9161 10.2443 32.7764 9.27767 33.8591 8.601C34.9418 7.92433 36.1501 7.586 37.4841 7.586C38.6248 7.586 39.6204 7.818 40.4711 8.282C41.3411 8.746 42.0081 9.355 42.4721 10.109V7.818H47.4311V24H42.4721V21.709C41.9888 22.463 41.3121 23.072 40.4421 23.536C39.5914 24 38.5958 24.232 37.4551 24.232C36.1404 24.232 34.9418 23.8937 33.8591 23.217C32.7764 22.521 31.9161 21.5447 31.2781 20.288C30.6594 19.012 30.3501 17.5427 30.3501 15.88ZM42.4721 15.909C42.4721 14.6717 42.1241 13.6953 41.4281 12.98C40.7514 12.2647 39.9201 11.907 38.9341 11.907C37.9481 11.907 37.1071 12.2647 36.4111 12.98C35.7344 13.676 35.3961 14.6427 35.3961 15.88C35.3961 17.1173 35.7344 18.1033 36.4111 18.838C37.1071 19.5533 37.9481 19.911 38.9341 19.911C39.9201 19.911 40.7514 19.5533 41.4281 18.838C42.1241 18.1227 42.4721 17.1463 42.4721 15.909ZM58.2977 19.36L61.8067 7.818H67.0847L61.3427 24H55.2237L49.4817 7.818H54.7887L58.2977 19.36ZM76.538 24.232C74.9527 24.232 73.522 23.8937 72.246 23.217C70.9894 22.5403 69.9937 21.5737 69.259 20.317C68.5437 19.0603 68.186 17.591 68.186 15.909C68.186 14.2463 68.5534 12.7867 69.288 11.53C70.0227 10.254 71.028 9.27767 72.304 8.601C73.58 7.92433 75.0107 7.586 76.596 7.586C78.1814 7.586 79.612 7.92433 80.888 8.601C82.164 9.27767 83.1694 10.254 83.904 11.53C84.6387 12.7867 85.006 14.2463 85.006 15.909C85.006 17.5717 84.629 19.041 83.875 20.317C83.1404 21.5737 82.1254 22.5403 80.83 23.217C79.554 23.8937 78.1234 24.232 76.538 24.232ZM76.538 19.94C77.4854 19.94 78.2877 19.592 78.945 18.896C79.6217 18.2 79.96 17.2043 79.96 15.909C79.96 14.6137 79.6314 13.618 78.974 12.922C78.336 12.226 77.5434 11.878 76.596 11.878C75.6294 11.878 74.827 12.226 74.189 12.922C73.551 13.5987 73.232 14.5943 73.232 15.909C73.232 17.2043 73.5414 18.2 74.16 18.896C74.798 19.592 75.5907 19.94 76.538 19.94ZM92.5959 2.54V24H87.6369V2.54H92.5959ZM98.6836 6.136C97.8136 6.136 97.0983 5.88467 96.5376 5.382C95.9963 4.86 95.7256 4.222 95.7256 3.468C95.7256 2.69467 95.9963 2.05667 96.5376 1.554C97.0983 1.032 97.8136 0.770998 98.6836 0.770998C99.5343 0.770998 100.23 1.032 100.772 1.554C101.332 2.05667 101.613 2.69467 101.613 3.468C101.613 4.222 101.332 4.86 100.772 5.382C100.23 5.88467 99.5343 6.136 98.6836 6.136ZM101.149 7.818V24H96.1896V7.818H101.149ZM103.756 15.909C103.756 14.227 104.095 12.7577 104.771 11.501C105.467 10.2443 106.424 9.27767 107.642 8.601C108.88 7.92433 110.291 7.586 111.876 7.586C113.906 7.586 115.598 8.11767 116.951 9.181C118.324 10.2443 119.223 11.7427 119.648 13.676H114.37C113.926 12.4387 113.065 11.82 111.789 11.82C110.881 11.82 110.156 12.1777 109.614 12.893C109.073 13.589 108.802 14.5943 108.802 15.909C108.802 17.2237 109.073 18.2387 109.614 18.954C110.156 19.65 110.881 19.998 111.789 19.998C113.065 19.998 113.926 19.3793 114.37 18.142H119.648C119.223 20.0367 118.324 21.5253 116.951 22.608C115.579 23.6907 113.887 24.232 111.876 24.232C110.291 24.232 108.88 23.8937 107.642 23.217C106.424 22.5403 105.467 21.5737 104.771 20.317C104.095 19.0603 103.756 17.591 103.756 15.909Z" fill="#1090CB"/>
</svg>
